<svg id="Layer_1" data-name="Layer 1" xmlns="http://www.w3.org/2000/svg" viewBox="0 0 900 871"><defs><style>.cls-1{fill:#8edfed;}.cls-2{fill:#ffa154;}</style></defs><path d="M277.19,475.44,430.7,155.63q32,59.16,64,118.33Z"/><path d="M533.05,342.71l99.54,185.82H536.37l-63.05-125Z"/><path class="cls-1" d="M261,528.53,707.54,118.37A459.61,459.61,0,0,1,835,341.61l-115,1.1a302.63,302.63,0,0,0-79.79-150.3L316.26,528.53Z"/><path class="cls-2" d="M679.14,95.94A393.28,393.28,0,0,0,441.9,19.71,401.18,401.18,0,0,0,287.39,52.58c-35.7,15.54-127.09,56.94-182.41,160C91.32,238,52.37,312.43,66.1,409.93a306.36,306.36,0,0,0,43.33,118.6l73.42-.32c-13.72-22.74-51-91.32-38.38-179.09C164.57,209.47,293.05,146.38,310.77,138c14-6.56,113-51.35,223.87-12.79a282.81,282.81,0,0,1,72.73,38Z"/><path d="M377.19,829.48H356.07L326.58,752H208q-6.39,18.27-13.86,38.62t-14.3,38.84H161.12q11.88-31.25,23.44-61.17t23-59.52q11.43-29.6,23-59.52T254,588.32h24.86Zm-55.67-91.32-55.88-134-53,134Z"/><path d="M490.07,672.59a30,30,0,0,0-5.28-.44H478.4a35.82,35.82,0,0,0-14.52,3.09,63,63,0,0,0-13.42,8,84.82,84.82,0,0,0-11.88,11.22,88.71,88.71,0,0,0-9.46,12.87V829.48h-17.6V659h17.6V682.5A91.9,91.9,0,0,1,444,668.19a75.87,75.87,0,0,1,14.3-8.58,53,53,0,0,1,13.31-4.07,76.75,76.75,0,0,1,11.67-1c1.17,0,2.27,0,3.3.11s2.2.19,3.52.33Z"/><path d="M667.49,659,602.8,829.48H587L522.27,659H540.1l54.78,146.32,55-146.32Z"/><path d="M726.68,829.48h-17.6V659h17.6Zm.22-213.43H709.3V588.54h17.6Z"/></svg>